<svg xmlns="http://www.w3.org/2000/svg" xmlns:xlink="http://www.w3.org/1999/xlink" width="33.608" height="40.321" viewBox="0 0 33.608 40.321">
  <defs>
    <linearGradient id="linear-gradient" x1="0.502" y1="0.026" x2="0.497" y2="0.949" gradientUnits="objectBoundingBox">
      <stop offset="0" stop-color="#459fe5"/>
      <stop offset="1" stop-color="#1c74c4"/>
    </linearGradient>
  </defs>
  <g id="Group_6548" data-name="Group 6548" transform="translate(-9495.154 100.254)">
    <g id="Group_6547" data-name="Group 6547" transform="translate(9236.309 -238.894)">
      <path id="Path_14790" data-name="Path 14790" d="M287.686,152c-7.794.242-15.469,3.988-15.469,3.988v15.333s-.226,4.322,1.149,6.9c2.838,5.559,14.32,11.3,14.32,11.3s11.482-5.74,14.323-11.3c1.373-2.584,1.147-6.906,1.147-6.906V155.986S295.482,152.24,287.686,152Z" transform="translate(-12.036 -12.037)" fill="url(#linear-gradient)"/>
      <path id="Path_14791" data-name="Path 14791" d="M275.649,178.961l-.59-.295c-.484-.242-11.9-6-14.906-11.881-1.464-2.75-1.315-7.057-1.293-7.536V143.124l.741-.362c.324-.158,8.022-3.873,16.007-4.121h.082c7.987.248,15.684,3.963,16.008,4.121l.741.362v16.125c.022.478.17,4.786-1.3,7.557-2.994,5.859-14.414,11.619-14.9,11.861ZM261.5,144.8l0,14.552c-.056,1.1.014,4.371,1,6.215,2.049,4.015,9.689,8.622,13.151,10.435,2.328-1.233,10.892-5.992,13.152-10.415.99-1.865,1.06-5.133,1-6.237l0-.068V144.8a41.93,41.93,0,0,0-14.15-3.517A41.822,41.822,0,0,0,261.5,144.8Z" fill="#fff"/>
      <g id="Group_5872" data-name="Group 5872" transform="translate(265.184 145.858)" opacity="0.8">
        <circle id="Ellipse_1142" data-name="Ellipse 1142" cx="0.935" cy="0.935" r="0.935" transform="translate(0.052 17.178) rotate(-62.45)"/>
        <path id="Path_14792" data-name="Path 14792" d="M344.815,221.776a.934.934,0,0,0-1.613.137l-2.62.081a6.977,6.977,0,0,0-.849-2.217l1.716-.65a.729.729,0,1,0-.144-.46l-1.787.77c-.02-.03-.039-.061-.06-.091a7,7,0,0,0-1.7-1.717l1.273-3.021a1.332,1.332,0,1,0-1.217-.565,1.336,1.336,0,0,0,.15.178l-1.19,2.825a7.067,7.067,0,0,0-3.21-.712l.122-2.906a.934.934,0,1,0-1.161-.313.931.931,0,0,0,.351.3l-.106,2.976a7,7,0,0,0-2.585.874l-2.043-2.858a1.318,1.318,0,1,0-.93.648l2.038,2.852a7.028,7.028,0,0,0-1.141,1.165l-1.979-1.328a.934.934,0,1,0-.369.525.946.946,0,0,0,.124-.1l1.941,1.3a7.056,7.056,0,0,0-1.182,3.8l-1.84-.174a.934.934,0,1,0-.388.916.945.945,0,0,0,.146-.125l2.116.2a6.972,6.972,0,0,0,.7,2.419l-2.391,1.263.3.572,2.4-1.269q.1.157.2.31a6.994,6.994,0,0,0,1.892,1.848l-1.675,1.781a.934.934,0,1,0,.575.571l1.856-1.917a7.041,7.041,0,0,0,1.414.518l-.428,1.425a.735.735,0,1,0,.454.178l.45-1.5a7.038,7.038,0,0,0,3.337-.212l1.407,3.226a1.629,1.629,0,1,0,1.026-.482l-1.383-3.171a7.114,7.114,0,0,0,.865-.513,7.013,7.013,0,0,0,2.452-3.006l2.075,1.022a.938.938,0,1,0,.31-.57l-2.156-1.062a7.065,7.065,0,0,0,.32-2.717l2.518-.078a.934.934,0,1,0,1.6-.947Z" transform="translate(-322.95 -211.647)"/>
      </g>
      <g id="Group_5907" data-name="Group 5907" transform="translate(265.085 145.661)">
        <g id="Group_5902" data-name="Group 5902" transform="translate(0 0)">
          <g id="Group_5873" data-name="Group 5873" transform="translate(16.973 13.793)">
            <rect id="Rectangle_1791" data-name="Rectangle 1791" width="0.648" height="2.68" transform="matrix(0.442, -0.897, 0.897, 0.442, 0, 0.581)" fill="#bf0000"/>
          </g>
          <g id="Group_5874" data-name="Group 5874" transform="translate(2.04 14.671)">
            <path id="Path_14793" data-name="Path 14793" d="M342.884,360.057l-.3-.572,2.749-1.452.3.572Z" transform="translate(-342.579 -358.033)" fill="#bf0000"/>
          </g>
          <g id="Group_5878" data-name="Group 5878" transform="translate(2.854 6.061)">
            <g id="Group_5875" data-name="Group 5875" transform="translate(13.484 0.921)">
              <path id="Path_14794" data-name="Path 14794" d="M487.493,281.465l-.3-.3,2.11-.909.188.448Z" transform="translate(-487.196 -280.26)" fill="#bf0000"/>
            </g>
            <g id="Group_5876" data-name="Group 5876" transform="translate(5.707 12.166)">
              <path id="Path_14795" data-name="Path 14795" d="M408.541,395.8l.543-1.811.466.137-.543,1.811Z" transform="translate(-408.541 -393.992)" fill="#bf0000"/>
            </g>
            <g id="Group_5877" data-name="Group 5877">
              <rect id="Rectangle_1792" data-name="Rectangle 1792" width="0.486" height="2.796" transform="matrix(0.558, -0.83, 0.83, 0.558, 0, 0.404)" fill="#bf0000"/>
            </g>
          </g>
          <g id="Group_5882" data-name="Group 5882" transform="translate(4.23 2.425)">
            <g id="Group_5879" data-name="Group 5879" transform="translate(9.486)">
              <path id="Path_14796" data-name="Path 14796" d="M460.673,237.41l1.363-3.235,1.049.43-1.363,3.235Z" transform="translate(-460.673 -234.175)" fill="#bf0000"/>
            </g>
            <g id="Group_5880" data-name="Group 5880" transform="translate(8.433 15.181)">
              <path id="Path_14797" data-name="Path 14797" d="M451.75,392.115l-1.723-3.951,1.04-.451,1.723,3.951Z" transform="translate(-450.026 -387.714)" fill="#bf0000"/>
            </g>
            <g id="Group_5881" data-name="Group 5881" transform="translate(0 0.291)">
              <path id="Path_14798" data-name="Path 14798" d="M366.95,240.873l-2.22-3.106.931-.647,2.22,3.106Z" transform="translate(-364.73 -237.119)" fill="#bf0000"/>
            </g>
          </g>
          <g id="Group_5887" data-name="Group 5887" transform="translate(1.567 1.733)">
            <g id="Group_5883" data-name="Group 5883" transform="translate(15.823 8.533)">
              <path id="Path_14799" data-name="Path 14799" d="M497.856,314.381l-.028-.81,2.869-.089.028.81Z" transform="translate(-497.828 -313.483)" fill="#bf0000"/>
            </g>
            <g id="Group_5884" data-name="Group 5884" transform="translate(3.574 15.792)">
              <path id="Path_14800" data-name="Path 14800" d="M373.95,388.766l1.757-1.869.838.352-2.005,2.072Z" transform="translate(-373.95 -386.897)" fill="#bf0000"/>
            </g>
            <g id="Group_5885" data-name="Group 5885" transform="translate(0 9.7)">
              <path id="Path_14801" data-name="Path 14801" d="M337.8,326.083l.1-.8,2.383.225-.1.8Z" transform="translate(-337.797 -325.279)" fill="#bf0000"/>
            </g>
            <g id="Group_5886" data-name="Group 5886" transform="translate(8.246)">
              <path id="Path_14802" data-name="Path 14802" d="M421.2,230.466l.117-3.29.809.034L422,230.167Z" transform="translate(-421.196 -227.176)" fill="#bf0000"/>
            </g>
          </g>
          <g id="Group_5888" data-name="Group 5888" transform="translate(0.938 1.93)">
            <ellipse id="Ellipse_1143" data-name="Ellipse 1143" cx="7.039" cy="7.027" rx="7.039" ry="7.027" transform="translate(0 8.037) rotate(-34.811)" fill="#bf0000"/>
          </g>
          <g id="Group_5901" data-name="Group 5901">
            <g id="Group_5889" data-name="Group 5889" transform="translate(14.627 0.304)">
              <circle id="Ellipse_1144" data-name="Ellipse 1144" cx="1.332" cy="1.332" r="1.332" fill="#bf0000"/>
            </g>
            <g id="Group_5890" data-name="Group 5890" transform="translate(13.767 21.165)">
              <circle id="Ellipse_1145" data-name="Ellipse 1145" cx="1.628" cy="1.628" r="1.628" fill="#bf0000"/>
            </g>
            <g id="Group_5891" data-name="Group 5891" transform="translate(2.732 0.794)">
              <circle id="Ellipse_1146" data-name="Ellipse 1146" cx="1.318" cy="1.318" r="1.318" fill="#bf0000"/>
            </g>
            <g id="Group_5892" data-name="Group 5892" transform="translate(1.345 4.923)">
              <circle id="Ellipse_1147" data-name="Ellipse 1147" cx="0.935" cy="0.935" r="0.935" fill="#bf0000"/>
            </g>
            <g id="Group_5893" data-name="Group 5893" transform="translate(0 10.664)">
              <circle id="Ellipse_1148" data-name="Ellipse 1148" cx="0.935" cy="0.935" r="0.935" fill="#bf0000"/>
            </g>
            <g id="Group_5894" data-name="Group 5894" transform="translate(0.378 15.847)">
              <circle id="Ellipse_1149" data-name="Ellipse 1149" cx="0.935" cy="0.935" r="0.935" fill="#bf0000"/>
            </g>
            <g id="Group_5895" data-name="Group 5895" transform="translate(3.927 19.313)">
              <circle id="Ellipse_1150" data-name="Ellipse 1150" cx="0.935" cy="0.935" r="0.935" fill="#bf0000"/>
            </g>
            <g id="Group_5896" data-name="Group 5896" transform="translate(19.257 14.704)">
              <circle id="Ellipse_1151" data-name="Ellipse 1151" cx="0.935" cy="0.935" r="0.935" fill="#bf0000"/>
            </g>
            <g id="Group_5897" data-name="Group 5897" transform="translate(20.163 9.728)">
              <circle id="Ellipse_1152" data-name="Ellipse 1152" cx="0.935" cy="0.935" r="0.935" fill="#bf0000"/>
            </g>
            <g id="Group_5898" data-name="Group 5898" transform="translate(18.354 6.316)">
              <circle id="Ellipse_1153" data-name="Ellipse 1153" cx="0.729" cy="0.729" r="0.729" fill="#bf0000"/>
            </g>
            <g id="Group_5899" data-name="Group 5899" transform="translate(7.832 19.961)">
              <circle id="Ellipse_1154" data-name="Ellipse 1154" cx="0.729" cy="0.729" r="0.729" fill="#bf0000"/>
            </g>
            <g id="Group_5900" data-name="Group 5900" transform="translate(9.41)">
              <circle id="Ellipse_1155" data-name="Ellipse 1155" cx="0.935" cy="0.935" r="0.935" fill="#bf0000"/>
            </g>
          </g>
        </g>
        <g id="Group_5906" data-name="Group 5906" transform="translate(5.389 6.24)">
          <g id="Group_5903" data-name="Group 5903" transform="translate(8.079 7.077)">
            <circle id="Ellipse_1156" data-name="Ellipse 1156" cx="0.947" cy="0.947" r="0.947" fill="#fff"/>
          </g>
          <g id="Group_5904" data-name="Group 5904" transform="translate(3.373)">
            <circle id="Ellipse_1157" data-name="Ellipse 1157" cx="1.162" cy="1.162" r="1.162" fill="#fff"/>
          </g>
          <g id="Group_5905" data-name="Group 5905" transform="translate(0 5.121)">
            <circle id="Ellipse_1158" data-name="Ellipse 1158" cx="0.802" cy="0.802" r="0.802" fill="#fff"/>
          </g>
        </g>
      </g>
      <rect id="Rectangle_1793" data-name="Rectangle 1793" width="37.124" height="2.571" transform="translate(263.459 169.302) rotate(-45)" fill="#fff"/>
    </g>
  </g>
</svg>
