<svg xmlns="http://www.w3.org/2000/svg" xmlns:xlink="http://www.w3.org/1999/xlink" width="164" height="164" viewBox="0 0 164 164"><defs><clipPath id="a"><path d="M-861.42,175.542l-.005,42.156c-.162,3.194.04,12.662,2.885,18,5.937,11.63,28.067,24.978,38.1,30.229,6.744-3.572,31.552-17.359,38.1-30.172,2.869-5.4,3.072-14.871,2.909-18.068l0-.2V175.544c-5.978-2.615-23.511-9.617-40.991-10.189C-837.947,165.928-855.451,172.926-861.42,175.542Z" transform="translate(861.466 -165.355)" fill="none"/></clipPath><linearGradient id="b" x1="0.5" x2="0.5" y2="0.986" gradientUnits="objectBoundingBox"><stop offset="0" stop-color="#459fe5"/><stop offset="1" stop-color="#1c74c4"/></linearGradient></defs><g transform="translate(-86 -266)"><g transform="translate(8 8)"><g transform="translate(78 258)"><circle cx="82" cy="82" r="82" fill="#015cd0" opacity="0.08"/></g><g transform="translate(111 282)"><g transform="translate(7.644 7.652)"><g transform="translate(0 0)" clip-path="url(#a)"><path d="M-827.2,111.815a33.011,33.011,0,0,0-18.331-19.19c-4.373-1.933-9.982-2.578-15.071-2.578h-72.683c-5.089,0-10.7.644-15.071,2.578a33.01,33.01,0,0,0-18.331,19.19c-1.426,3.839-2,9.3-2,13.639v72.684c0,4.335.579,9.8,2,13.639a33.012,33.012,0,0,0,18.331,19.19c4.373,1.933,9.982,2.578,15.071,2.578h72.683c5.089,0,10.7-.645,15.071-2.578a33.012,33.012,0,0,0,18.331-19.19c1.426-3.839,2-9.3,2-13.639V125.454C-825.2,121.119-825.778,115.654-827.2,111.815Z" transform="translate(937.983 -111.617)" fill="url(#b)"/></g></g><g transform="translate(18.075 20.338)"><g transform="translate(0.286 0.573)" opacity="0.8"><circle cx="2.708" cy="2.708" r="2.708" transform="translate(0.15 49.764) rotate(-62.45)"/><path d="M-760.71,240.991a2.708,2.708,0,0,0-3.769-.677,2.69,2.69,0,0,0-.9,1.075l-7.589.236a20.207,20.207,0,0,0-2.458-6.423l4.972-1.882a2.111,2.111,0,0,0,2.9.472,2.112,2.112,0,0,0,.528-2.94,2.112,2.112,0,0,0-2.94-.528,2.107,2.107,0,0,0-.9,1.664l-5.176,2.23c-.059-.088-.114-.178-.174-.265a20.285,20.285,0,0,0-4.92-4.973l3.688-8.753a3.832,3.832,0,0,0,1.845-.672,3.859,3.859,0,0,0,.966-5.371,3.859,3.859,0,0,0-5.371-.966,3.859,3.859,0,0,0-.966,5.371,3.867,3.867,0,0,0,.435.516L-784,227.291a20.471,20.471,0,0,0-9.3-2.063l.354-8.419a2.733,2.733,0,0,0,.406-.23,2.708,2.708,0,0,0,.678-3.769,2.708,2.708,0,0,0-3.769-.677,2.708,2.708,0,0,0-.677,3.769,2.7,2.7,0,0,0,1.018.879l-.308,8.621a20.284,20.284,0,0,0-7.489,2.532l-5.918-8.28a3.814,3.814,0,0,0-.18-4.067,3.818,3.818,0,0,0-5.315-.955,3.818,3.818,0,0,0-.955,5.315,3.815,3.815,0,0,0,3.755,1.584l5.9,8.262a20.355,20.355,0,0,0-3.306,3.374l-5.732-3.847a2.7,2.7,0,0,0-.391-2.247,2.708,2.708,0,0,0-3.769-.677,2.708,2.708,0,0,0-.677,3.769,2.708,2.708,0,0,0,3.769.677,2.733,2.733,0,0,0,.359-.3l5.623,3.773a20.441,20.441,0,0,0-3.424,11.012l-5.329-.5a2.69,2.69,0,0,0-.448-1.116,2.708,2.708,0,0,0-3.769-.677,2.708,2.708,0,0,0-.678,3.769,2.708,2.708,0,0,0,3.769.677,2.733,2.733,0,0,0,.422-.363l6.13.579a20.2,20.2,0,0,0,2.03,7.008l-6.927,3.66.883,1.656,6.958-3.676q.282.454.59.9a20.262,20.262,0,0,0,5.481,5.353l-4.851,5.161a2.7,2.7,0,0,0-2.433.332,2.708,2.708,0,0,0-.677,3.769,2.708,2.708,0,0,0,3.769.677,2.707,2.707,0,0,0,1.005-3.124l5.376-5.555a20.4,20.4,0,0,0,4.1,1.5l-1.239,4.128a2.1,2.1,0,0,0-1.272.375,2.112,2.112,0,0,0-.529,2.94,2.112,2.112,0,0,0,2.94.528,2.112,2.112,0,0,0,.528-2.94,2.1,2.1,0,0,0-.352-.389l1.3-4.343a20.389,20.389,0,0,0,9.668-.615l4.077,9.346a4.716,4.716,0,0,0-.5,5.992,4.717,4.717,0,0,0,6.566,1.18,4.717,4.717,0,0,0,1.18-6.565,4.711,4.711,0,0,0-4.267-2l-4.007-9.185a20.6,20.6,0,0,0,2.506-1.487,20.315,20.315,0,0,0,7.1-8.708l6.01,2.962a2.7,2.7,0,0,0,.453,1.937,2.708,2.708,0,0,0,3.769.677,2.708,2.708,0,0,0,.677-3.769,2.708,2.708,0,0,0-3.769-.677,2.683,2.683,0,0,0-.233.182l-6.246-3.078a20.468,20.468,0,0,0,.927-7.871l7.3-.227a2.74,2.74,0,0,0,.2.347,2.708,2.708,0,0,0,3.769.677A2.708,2.708,0,0,0-760.71,240.991Z" transform="translate(824.05 -211.647)"/></g><g transform="translate(49.17 39.956)"><rect width="1.877" height="7.765" transform="matrix(0.442, -0.897, 0.897, 0.442, 0, 1.684)" fill="#bf0000"/></g><g transform="translate(5.908 42.501)"><path d="M-803.538,363.9l-.883-1.656,7.963-4.207.883,1.656Z" transform="translate(804.421 -358.033)" fill="#bf0000"/></g><g transform="translate(8.268 17.557)"><g transform="translate(39.062 2.668)"><path d="M-658.945,283.752l-.859-.859,6.111-2.633.544,1.3Z" transform="translate(659.804 -280.26)" fill="#bf0000"/></g><g transform="translate(16.533 35.243)"><path d="M-738.459,399.239l1.574-5.247,1.351.4-1.574,5.247Z" transform="translate(738.459 -393.992)" fill="#bf0000"/></g><g transform="translate(0 0)"><rect width="1.408" height="8.101" transform="matrix(0.558, -0.83, 0.83, 0.558, 0, 1.169)" fill="#bf0000"/></g></g><g transform="translate(12.253 7.025)"><g transform="translate(27.48)"><path d="M-686.327,243.548l3.949-9.373,3.039,1.247-3.949,9.373Z" transform="translate(686.327 -234.175)" fill="#bf0000"/></g><g transform="translate(24.431 43.977)"><path d="M-691.981,400.465l-4.993-11.444,3.013-1.307,4.993,11.444Z" transform="translate(696.974 -387.714)" fill="#bf0000"/></g><g transform="translate(0 0.843)"><path d="M-775.838,247.993l-6.432-9,2.7-1.875,6.432,9Z" transform="translate(782.27 -237.119)" fill="#bf0000"/></g></g><g transform="translate(4.539 5.02)"><g transform="translate(45.836 24.72)"><path d="M-649.091,316.086l-.081-2.345,8.31-.259.081,2.345Z" transform="translate(649.172 -313.483)" fill="#bf0000"/></g><g transform="translate(10.355 45.748)"><path d="M-773.05,392.311l5.089-5.413,2.429,1.019-5.809,6Z" transform="translate(773.05 -386.897)" fill="#bf0000"/></g><g transform="translate(0 28.099)"><path d="M-809.2,327.608l.278-2.329,6.9.652-.278,2.329Z" transform="translate(809.203 -325.279)" fill="#bf0000"/></g><g transform="translate(23.887)"><path d="M-725.8,236.707l.34-9.531,2.343.1-.36,8.565Z" transform="translate(725.804 -227.176)" fill="#bf0000"/></g></g><g transform="translate(2.718 5.591)"><ellipse cx="20.391" cy="20.357" rx="20.391" ry="20.357" transform="translate(0 23.282) rotate(-34.811)" fill="#bf0000"/></g><g transform="translate(42.374 0.881)"><circle cx="3.859" cy="3.859" r="3.859" fill="#bf0000"/></g><g transform="translate(39.882 61.313)"><circle cx="4.717" cy="4.717" r="4.717" fill="#bf0000"/></g><g transform="translate(7.914 2.3)"><circle cx="3.818" cy="3.818" r="3.818" fill="#bf0000"/></g><g transform="translate(3.897 14.261)"><circle cx="2.708" cy="2.708" r="2.708" fill="#bf0000"/></g><g transform="translate(0 30.894)"><circle cx="2.708" cy="2.708" r="2.708" fill="#bf0000"/></g><g transform="translate(1.095 45.907)"><circle cx="2.708" cy="2.708" r="2.708" fill="#bf0000"/></g><g transform="translate(11.375 55.948)"><circle cx="2.708" cy="2.708" r="2.708" fill="#bf0000"/></g><g transform="translate(55.786 42.597)"><circle cx="2.708" cy="2.708" r="2.708" fill="#bf0000"/></g><g transform="translate(58.409 28.181)"><circle cx="2.708" cy="2.708" r="2.708" fill="#bf0000"/></g><g transform="translate(53.17 18.298)"><circle cx="2.112" cy="2.112" r="2.112" fill="#bf0000"/></g><g transform="translate(22.688 57.826)"><circle cx="2.112" cy="2.112" r="2.112" fill="#bf0000"/></g><g transform="translate(27.26)"><circle cx="2.708" cy="2.708" r="2.708" fill="#bf0000"/></g><g transform="translate(15.613 18.075)"><g transform="translate(23.405 20.5)"><circle cx="2.745" cy="2.745" r="2.745" fill="#fff"/></g><g transform="translate(9.77)"><circle cx="3.365" cy="3.365" r="3.365" fill="#fff"/></g><g transform="translate(0 14.836)"><circle cx="2.323" cy="2.323" r="2.323" fill="#fff"/></g></g></g><path d="M-790.836,198.341V151.63l-2.146-1.048c-.938-.457-23.237-11.221-46.375-11.938l-.119,0-.119,0c-23.133.717-45.434,11.481-46.372,11.938l-2.146,1.048v46.714c-.063,1.388-.5,13.866,3.745,21.832,8.693,17.03,41.777,33.715,43.18,34.417l1.71.854,1.711-.854c1.4-.7,34.485-17.387,43.159-34.361C-790.342,212.205-790.773,199.725-790.836,198.341Zm-86.749,18.3c-2.845-5.343-3.046-14.811-2.885-18l.006-42.156c5.97-2.616,23.473-9.614,40.989-10.187,14.656.479,29.347,5.478,37.236,8.623l-69.461,69.46A33.145,33.145,0,0,1-877.585,216.64Zm76.2.057c-6.548,12.813-31.356,26.6-38.1,30.172A165.625,165.625,0,0,1-866.2,229.407l67.716-67.716v36.742l0,.2C-798.317,201.826-798.52,211.295-801.388,216.7Z" transform="translate(888.154 -138.64)" fill="#fff"/></g></g></g></svg>